<svg width="1103" height="272" viewBox="0 0 1103 272" fill="none" xmlns="http://www.w3.org/2000/svg">
<path d="M94 29.9999C94 42.1502 103.85 51.9999 116 51.9999H156C168.15 51.9999 178 42.1502 178 29.9999V0H250C262.15 0 272 9.84974 272 22V93.9999H242C229.85 93.9999 220 103.85 220 116V156C220 168.15 229.85 178 242 178H272V250C272 262.15 262.15 272 250 272H178V242C178 229.85 168.15 220 156 220H116C103.85 220 94 229.85 94 242V272H22C9.84974 272 0 262.15 0 250V178H30C42.1503 178 52 168.15 52 156V116C52 103.85 42.1503 93.9999 30 93.9999H0V22C0 9.84974 9.84974 0 22 0H94V29.9999Z" fill="#2F80ED"/>
<path d="M461.467 189.873H441.867L433.772 181.578C425.165 187.108 415.577 189.873 405.008 189.873C391.317 189.873 379.164 185.235 368.55 175.959C357 165.746 351.225 152.702 351.225 136.826C351.225 121.262 356.688 108.284 367.614 97.8931C378.228 87.8143 390.759 82.7749 405.208 82.7749C418.32 82.7749 430.071 87.1899 440.462 96.02C452.949 106.634 459.192 120.481 459.192 137.562C459.192 150.94 454.264 162.825 444.409 173.216L461.467 189.873ZM418.587 147.127L433.572 162.045C440.172 155.177 443.472 146.681 443.472 136.558C443.472 125.454 439.793 116.155 432.435 108.663C425.076 101.171 415.934 97.4248 405.008 97.4248C393.948 97.4248 384.85 101.171 377.715 108.663C370.535 116.111 366.945 125.543 366.945 136.959C366.945 148.109 370.646 157.229 378.049 164.319C385.764 171.633 394.572 175.29 404.473 175.29C411.207 175.29 417.294 173.751 422.735 170.674L398.452 147.127H418.587ZM490.967 122.845V160.239C490.967 171.031 495.226 176.427 503.744 176.427C512.262 176.427 516.521 171.031 516.521 160.239V122.845H531.572V160.573C531.572 165.791 530.926 170.295 529.632 174.086C528.384 177.475 526.221 180.53 523.144 183.25C518.06 187.666 511.593 189.873 503.744 189.873C495.94 189.873 489.496 187.666 484.412 183.25C481.29 180.53 479.082 177.475 477.789 174.086C476.54 171.053 475.916 166.549 475.916 160.573V122.845H490.967ZM598.601 122.845H613.719V188H598.601V181.177C592.402 186.974 585.735 189.873 578.599 189.873C569.591 189.873 562.143 186.618 556.256 180.106C550.414 173.462 547.493 165.167 547.493 155.222C547.493 145.455 550.414 137.316 556.256 130.805C562.098 124.294 569.412 121.039 578.198 121.039C585.779 121.039 592.58 124.16 598.601 130.404V122.845ZM562.879 155.222C562.879 161.465 564.551 166.549 567.896 170.474C571.33 174.443 575.656 176.427 580.874 176.427C586.448 176.427 590.952 174.51 594.386 170.674C597.82 166.705 599.537 161.666 599.537 155.556C599.537 149.446 597.82 144.407 594.386 140.438C590.952 136.558 586.493 134.618 581.007 134.618C575.834 134.618 571.508 136.58 568.03 140.505C564.596 144.474 562.879 149.38 562.879 155.222ZM648.236 136.893V188H633.185V136.893H626.763V122.845H633.185V98.9634H648.236V122.845H659.943V136.893H648.236ZM685.697 136.893V188H670.646V136.893H664.224V122.845H670.646V98.9634H685.697V122.845H697.404V136.893H685.697ZM707.639 122.845H722.69V128.665C725.455 125.766 727.908 123.781 730.048 122.711C732.234 121.596 734.82 121.039 737.808 121.039C741.777 121.039 745.925 122.332 750.25 124.918L743.36 138.699C740.506 136.647 737.719 135.622 734.999 135.622C726.793 135.622 722.69 141.82 722.69 154.218V188H707.639V122.845ZM755.803 154.954C755.803 145.544 759.17 137.539 765.904 130.939C772.638 124.339 780.844 121.039 790.521 121.039C800.243 121.039 808.493 124.361 815.272 131.006C821.961 137.651 825.306 145.812 825.306 155.489C825.306 165.256 821.939 173.439 815.205 180.04C808.426 186.595 800.109 189.873 790.253 189.873C780.487 189.873 772.303 186.528 765.703 179.839C759.103 173.239 755.803 164.944 755.803 154.954ZM771.188 155.222C771.188 161.733 772.928 166.884 776.406 170.674C779.974 174.51 784.679 176.427 790.521 176.427C796.408 176.427 801.113 174.532 804.636 170.741C808.159 166.951 809.92 161.889 809.92 155.556C809.92 149.223 808.159 144.162 804.636 140.371C801.068 136.536 796.363 134.618 790.521 134.618C784.768 134.618 780.108 136.536 776.54 140.371C772.972 144.206 771.188 149.157 771.188 155.222Z" fill="black"/>
<path d="M915.804 162.915H871.586L860.081 188H843.29L894.397 78.2261L943.699 188H926.641L915.804 162.915ZM909.449 148.265L894.13 113.145L878.075 148.265H909.449ZM968.851 223.454H953.8V122.845H968.851V129.936C974.782 124.004 981.516 121.039 989.053 121.039C998.017 121.039 1005.4 124.339 1011.2 130.939C1017.08 137.495 1020.03 145.767 1020.03 155.757C1020.03 165.523 1017.1 173.662 1011.26 180.173C1005.46 186.64 998.151 189.873 989.321 189.873C981.695 189.873 974.872 186.818 968.851 180.708V223.454ZM1004.64 155.824C1004.64 149.58 1002.95 144.496 999.556 140.572C996.122 136.603 991.796 134.618 986.578 134.618C981.048 134.618 976.566 136.536 973.132 140.371C969.698 144.206 967.982 149.246 967.982 155.489C967.982 161.599 969.698 166.638 973.132 170.607C976.522 174.487 980.981 176.427 986.511 176.427C991.729 176.427 996.033 174.465 999.422 170.541C1002.9 166.616 1004.64 161.71 1004.64 155.824ZM1051 223.454H1035.95V122.845H1051V129.936C1056.93 124.004 1063.66 121.039 1071.2 121.039C1080.16 121.039 1087.54 124.339 1093.34 130.939C1099.23 137.495 1102.17 145.767 1102.17 155.757C1102.17 165.523 1099.25 173.662 1093.41 180.173C1087.61 186.64 1080.3 189.873 1071.47 189.873C1063.84 189.873 1057.02 186.818 1051 180.708V223.454ZM1086.79 155.824C1086.79 149.58 1085.09 144.496 1081.7 140.572C1078.27 136.603 1073.94 134.618 1068.72 134.618C1063.19 134.618 1058.71 136.536 1055.28 140.371C1051.84 144.206 1050.13 149.246 1050.13 155.489C1050.13 161.599 1051.84 166.638 1055.28 170.607C1058.67 174.487 1063.13 176.427 1068.66 176.427C1073.88 176.427 1078.18 174.465 1081.57 170.541C1085.05 166.616 1086.79 161.71 1086.79 155.824Z" fill="#2F80ED"/>
</svg>
