<svg width="1041" height="272" viewBox="0 0 1041 272" fill="none" xmlns="http://www.w3.org/2000/svg">
<path d="M97.3013 29.1137C97.3013 41.264 107.151 51.1137 119.301 51.1137H158.301C170.452 51.1137 180.301 41.264 180.301 29.1137V0H250C262.15 0 272 9.84974 272 22V95.1137H243.301C231.151 95.1137 221.301 104.963 221.301 117.114V156.114C221.301 168.264 231.151 178.114 243.301 178.114H272V250C272 262.15 262.15 272 250 272H179.301V243.114C179.301 230.963 169.452 221.114 157.301 221.114H118.301C106.151 221.114 96.3013 230.963 96.3013 243.114V272H22C9.84974 272 0 262.15 0 250V178.114H29.3013C41.4515 178.114 51.3013 168.264 51.3013 156.114V117.114C51.3013 104.963 41.4515 95.1138 29.3013 95.1138H0V22C0 9.84974 9.84974 0 22 0H97.3013V29.1137Z" fill="white"/>
<path d="M356.375 188V84.7148H378.049C388.44 84.7148 396.646 85.7406 402.667 87.792C409.133 89.7988 414.997 93.2104 420.26 98.0269C430.918 107.749 436.248 120.526 436.248 136.357C436.248 152.234 430.695 165.077 419.591 174.889C414.016 179.794 408.174 183.206 402.064 185.124C396.356 187.041 388.262 188 377.782 188H356.375ZM371.962 173.35H378.986C385.987 173.35 391.807 172.614 396.445 171.143C401.083 169.582 405.275 167.107 409.021 163.717C416.692 156.716 420.527 147.596 420.527 136.357C420.527 125.03 416.737 115.843 409.155 108.797C402.332 102.509 392.276 99.3647 378.986 99.3647H371.962V173.35ZM512.374 158.968H465.681C466.083 164.319 467.822 168.578 470.899 171.745C473.976 174.866 477.923 176.427 482.739 176.427C486.485 176.427 489.585 175.535 492.038 173.751C494.446 171.968 497.188 168.667 500.266 163.851L512.976 170.942C511.013 174.287 508.94 177.163 506.754 179.571C504.569 181.935 502.228 183.897 499.73 185.458C497.233 186.974 494.535 188.089 491.636 188.803C488.737 189.516 485.593 189.873 482.204 189.873C472.482 189.873 464.678 186.751 458.791 180.508C452.904 174.22 449.961 165.88 449.961 155.489C449.961 145.188 452.815 136.848 458.523 130.471C464.276 124.183 471.902 121.039 481.401 121.039C490.99 121.039 498.571 124.093 504.146 130.203C509.675 136.268 512.44 144.675 512.44 155.422L512.374 158.968ZM496.921 146.659C494.825 138.632 489.763 134.618 481.736 134.618C479.907 134.618 478.19 134.908 476.585 135.488C474.979 136.023 473.508 136.826 472.17 137.896C470.877 138.922 469.762 140.17 468.825 141.642C467.889 143.114 467.175 144.786 466.685 146.659H496.921ZM534.583 122.845L551.44 159.436L568.23 122.845H585.155L551.306 192.482L517.725 122.845H534.583ZM652.317 158.968H605.625C606.026 164.319 607.765 168.578 610.842 171.745C613.919 174.866 617.866 176.427 622.683 176.427C626.429 176.427 629.528 175.535 631.981 173.751C634.389 171.968 637.132 168.667 640.209 163.851L652.919 170.942C650.957 174.287 648.883 177.163 646.698 179.571C644.513 181.935 642.171 183.897 639.674 185.458C637.176 186.974 634.478 188.089 631.58 188.803C628.681 189.516 625.537 189.873 622.147 189.873C612.425 189.873 604.621 186.751 598.734 180.508C592.848 174.22 589.904 165.88 589.904 155.489C589.904 145.188 592.758 136.848 598.467 130.471C604.22 124.183 611.846 121.039 621.345 121.039C630.933 121.039 638.514 124.093 644.089 130.203C649.619 136.268 652.384 144.675 652.384 155.422L652.317 158.968ZM636.864 146.659C634.768 138.632 629.707 134.618 621.679 134.618C619.851 134.618 618.134 134.908 616.528 135.488C614.923 136.023 613.451 136.826 612.113 137.896C610.82 138.922 609.705 140.17 608.769 141.642C607.832 143.114 607.118 144.786 606.628 146.659H636.864ZM683.891 75.0151V188H668.84V75.0151H683.891ZM699.879 154.954C699.879 145.544 703.246 137.539 709.98 130.939C716.714 124.339 724.92 121.039 734.597 121.039C744.319 121.039 752.569 124.361 759.348 131.006C766.038 137.651 769.382 145.812 769.382 155.489C769.382 165.256 766.015 173.439 759.281 180.04C752.503 186.595 744.185 189.873 734.33 189.873C724.563 189.873 716.38 186.528 709.779 179.839C703.179 173.239 699.879 164.944 699.879 154.954ZM715.265 155.222C715.265 161.733 717.004 166.884 720.482 170.674C724.05 174.51 728.755 176.427 734.597 176.427C740.484 176.427 745.189 174.532 748.712 170.741C752.235 166.951 753.997 161.889 753.997 155.556C753.997 149.223 752.235 144.162 748.712 140.371C745.144 136.536 740.439 134.618 734.597 134.618C728.844 134.618 724.184 136.536 720.616 140.371C717.049 144.206 715.265 149.157 715.265 155.222ZM800.421 223.454H785.37V122.845H800.421V129.936C806.353 124.004 813.087 121.039 820.624 121.039C829.587 121.039 836.968 124.339 842.766 130.939C848.652 137.495 851.596 145.767 851.596 155.757C851.596 165.523 848.675 173.662 842.833 180.173C837.035 186.64 829.721 189.873 820.891 189.873C813.265 189.873 806.442 186.818 800.421 180.708V223.454ZM836.21 155.824C836.21 149.58 834.515 144.496 831.126 140.572C827.692 136.603 823.366 134.618 818.148 134.618C812.618 134.618 808.137 136.536 804.703 140.371C801.269 144.206 799.552 149.246 799.552 155.489C799.552 161.599 801.269 166.638 804.703 170.607C808.092 174.487 812.552 176.427 818.082 176.427C823.299 176.427 827.603 174.465 830.992 170.541C834.471 166.616 836.21 161.71 836.21 155.824ZM926.852 158.968H880.16C880.561 164.319 882.3 168.578 885.377 171.745C888.455 174.866 892.401 176.427 897.218 176.427C900.964 176.427 904.063 175.535 906.516 173.751C908.924 171.968 911.667 168.667 914.744 163.851L927.454 170.942C925.492 174.287 923.418 177.163 921.233 179.571C919.048 181.935 916.706 183.897 914.209 185.458C911.712 186.974 909.014 188.089 906.115 188.803C903.216 189.516 900.072 189.873 896.683 189.873C886.961 189.873 879.156 186.751 873.27 180.508C867.383 174.22 864.439 165.88 864.439 155.489C864.439 145.188 867.294 136.848 873.002 130.471C878.755 124.183 886.381 121.039 895.88 121.039C905.468 121.039 913.049 124.093 918.624 130.203C924.154 136.268 926.919 144.675 926.919 155.422L926.852 158.968ZM911.399 146.659C909.303 138.632 904.242 134.618 896.214 134.618C894.386 134.618 892.669 134.908 891.063 135.488C889.458 136.023 887.986 136.826 886.648 137.896C885.355 138.922 884.24 140.17 883.304 141.642C882.367 143.114 881.654 144.786 881.163 146.659H911.399ZM943.375 122.845H958.426V128.665C961.191 125.766 963.644 123.781 965.785 122.711C967.97 121.596 970.556 121.039 973.544 121.039C977.514 121.039 981.661 122.332 985.987 124.918L979.097 138.699C976.243 136.647 973.455 135.622 970.735 135.622C962.529 135.622 958.426 141.82 958.426 154.218V188H943.375V122.845ZM1032.48 133.949L1020.04 140.572C1018.07 136.558 1015.64 134.551 1012.74 134.551C1011.36 134.551 1010.18 135.02 1009.2 135.956C1008.22 136.848 1007.73 138.007 1007.73 139.435C1007.73 141.932 1010.63 144.407 1016.42 146.86C1024.41 150.294 1029.78 153.46 1032.55 156.359C1035.31 159.258 1036.69 163.16 1036.69 168.065C1036.69 174.354 1034.37 179.616 1029.74 183.853C1025.23 187.866 1019.79 189.873 1013.41 189.873C1002.49 189.873 994.75 184.544 990.201 173.885L1003.04 167.932C1004.83 171.053 1006.19 173.038 1007.13 173.885C1008.95 175.58 1011.14 176.427 1013.68 176.427C1018.77 176.427 1021.31 174.108 1021.31 169.47C1021.31 166.794 1019.34 164.297 1015.42 161.978C1013.9 161.22 1012.39 160.484 1010.87 159.771C1009.36 159.057 1007.82 158.321 1006.26 157.563C1001.89 155.422 998.808 153.282 997.024 151.141C994.75 148.421 993.613 144.92 993.613 140.639C993.613 134.975 995.553 130.292 999.433 126.591C1003.4 122.889 1008.22 121.039 1013.88 121.039C1022.22 121.039 1028.42 125.342 1032.48 133.949Z" fill="white"/>
</svg>
